<?xml version="1.0" encoding="UTF-8"?>
<!DOCTYPE svg PUBLIC "-//W3C//DTD SVG 1.1//EN" "http://www.w3.org/Graphics/SVG/1.1/DTD/svg11.dtd">
<!-- Creator: CorelDRAW -->
<svg xmlns="http://www.w3.org/2000/svg" xml:space="preserve" width="1.70666in" height="1.70666in" version="1.1" 
viewBox="0 0 1706.66 1706.66"
 xmlns:xlink="http://www.w3.org/1999/xlink">
 <defs>
  <style type="text/css">
    .fil0 {fill:black}
  </style>
 </defs>
 <g id="Layer_x0020_1">
  <metadata id="CorelCorpID_0Corel-Layer"/>
  <path class="fil0" d="M1136.94 1164.16c-3.47,0 -6.94,-0.97 -10,-2.64l-169.68 -98.03c-9.58,-5.56 -12.78,-17.78 -7.36,-27.35l543.2 -940.88c19.02,-32.91 61.24,-44.15 94.01,-25.13l0 0 85.11 49.15c32.91,19.02 44.15,61.24 25.27,94.01l-543.2 940.89c-2.63,4.58 -7.08,7.91 -12.08,9.3 -1.8,0.56 -3.61,0.69 -5.28,0.69zm-142.46 -125.24l135.1 78.03 533.2 -923.52c7.92,-13.75 3.19,-31.52 -10.55,-39.43l-85.12 -49.15c-13.88,-7.92 -31.52,-3.19 -39.43,10.55l-533.2 923.53z"/>
  <path class="fil0" d="M1153.89 1706.53l-1057.24 0c-53.32,0 -96.65,-43.33 -96.65,-96.65l0 -1512.96c0,-53.31 43.33,-96.64 96.65,-96.64l871.45 0c5,0 9.72,1.8 13.33,5.14l138.16 124.42 124.28 110.39c4.31,3.75 6.67,9.3 6.67,15l0 334.78c0,3.47 -0.98,6.94 -2.64,10l-253.41 438.92 135.1 78.03 83.73 -145.1c4.59,-7.91 13.75,-11.66 22.5,-9.3 8.75,2.36 14.86,10.27 14.86,19.3l0 628.04c0,53.19 -43.46,96.65 -96.78,96.65zm-1057.24 -1666.26c-31.24,0 -56.65,25.41 -56.65,56.65l0 1512.83c0,31.24 25.41,56.65 56.65,56.65l1057.24 -0c31.24,0 56.66,-25.41 56.66,-56.65l-0.01 -553.34 -56.52 97.75c-5.55,9.58 -17.77,12.78 -27.35,7.36l-169.68 -98.03c-9.58,-5.56 -12.78,-17.78 -7.36,-27.35l260.77 -451.69 0 -320.48 -117.61 -104.42 -132.61 -119.28 -863.54 0z"/>
  <path class="fil0" d="M969.34 276.59c-5.28,0 -10.27,-2.08 -14.02,-5.83 -3.75,-3.75 -5.97,-8.75 -5.97,-14.17l-1.25 -236.33c0,-11.11 8.89,-20 19.86,-20.13 0,0 0,0 0.14,0 10.97,0 20,8.89 20,19.86l1.11 216.33 241.33 -1.53c0,0 0.14,0 0.14,0 10.97,0 20,8.89 20,19.86 0,11.11 -8.88,20 -19.86,20.13l-261.47 1.81c0,0 0,0 0,0z"/>
  <path class="fil0" d="M755.37 1253.3l-563.47 0c-11.11,0 -20,-9.02 -20,-20 0,-10.97 8.89,-20 20,-20l563.47 0c11.11,0 20,9.02 20,20 0,10.97 -9.03,19.99 -20,19.99z"/>
  <path class="fil0" d="M938.94 1000.03l-748.16 0c-11.11,0 -20,-9.02 -20,-20 0,-10.97 8.88,-20 20,-20l748.16 0c10.96,0 20,9.02 20,20 0,10.97 -9.03,19.99 -20,19.99z"/>
  <path class="fil0" d="M972.26 746.76l-780.36 0c-11.11,0 -20,-8.89 -20,-20 0,-11.11 8.89,-20 20,-20l780.22 0.01c10.96,0 20,8.88 20,20 0,11.11 -8.89,19.99 -19.86,19.99z"/>
  <path class="fil0" d="M1052.1 493.48l-860.2 0c-11.11,0 -20,-8.88 -20,-20 0,-11.11 8.89,-20 20,-20l860.07 0c10.97,0 20,8.89 20,20 0,11.11 -8.89,19.99 -19.86,19.99z"/>
  <path class="fil0" d="M738.57 1600.58l0 0c-6.8,0 -13.05,-3.47 -16.8,-9.17l-79.15 -121.78 -77.34 118.86c-3.75,5.69 -10,9.17 -16.8,9.17l0 0c-6.8,0 -13.05,-3.47 -16.8,-9.17l-60.96 -93.87 -55.54 85.54c-5.98,9.31 -18.33,11.94 -27.63,5.83 -9.31,-5.97 -11.94,-18.47 -5.83,-27.63l72.34 -111.36c3.75,-5.69 10,-9.16 16.8,-9.16l0 0c6.8,0 13.05,3.47 16.8,9.16l60.96 93.87 77.34 -118.86c3.75,-5.69 10,-9.17 16.8,-9.17l0 0c6.8,0 13.05,3.47 16.8,9.17l79.15 121.77 76.37 -117.61c5.97,-9.31 18.47,-11.94 27.63,-5.83 9.31,5.97 11.94,18.47 5.83,27.63l-93.17 143.3c-3.75,5.97 -10,9.3 -16.8,9.3z"/>
  <path class="fil0" d="M897.98 1387.85c-3.33,0 -6.8,-0.83 -9.86,-2.64 -7.64,-4.3 -11.53,-13.05 -9.72,-21.66l69.29 -321.59c1.39,-6.25 5.56,-11.53 11.39,-14.02 5.83,-2.5 12.64,-2.22 18.05,0.97l169.68 98.03c5.56,3.19 9.17,8.75 9.86,15 0.69,6.25 -1.53,12.5 -6.25,16.94l-238.83 223.55c-3.75,3.61 -8.75,5.41 -13.61,5.41zm82.89 -310.62l-49.98 232.31 172.59 -161.49 -122.61 -70.82z"/>
  <path class="fil0" d="M1575.31 404.76c-3.47,0 -6.8,-0.83 -10,-2.64l-169.68 -98.03c-9.58,-5.56 -12.78,-17.78 -7.36,-27.35 5.55,-9.58 17.78,-12.78 27.35,-7.36l169.68 98.03c9.58,5.56 12.78,17.78 7.36,27.35 -3.74,6.53 -10.41,10 -17.35,10z"/>
  <path class="fil0" d="M1049.33 1113.61c-3.47,0 -6.8,-0.83 -10,-2.63 -9.58,-5.56 -12.77,-17.78 -7.36,-27.35l424.48 -735.1c5.55,-9.58 17.77,-12.78 27.35,-7.36 9.58,5.56 12.78,17.78 7.36,27.35l-424.48 735.1c-3.74,6.39 -10.55,10 -17.35,10z"/>
 </g>
</svg>
