<?xml version="1.0" encoding="UTF-8"?>
<!DOCTYPE svg PUBLIC "-//W3C//DTD SVG 1.1//EN" "http://www.w3.org/Graphics/SVG/1.1/DTD/svg11.dtd">
<!-- Creator: CorelDRAW -->
<svg xmlns="http://www.w3.org/2000/svg" xml:space="preserve" width="1.70666in" height="1.70666in" version="1.1" style="shape-rendering:geometricPrecision; text-rendering:geometricPrecision; image-rendering:optimizeQuality; fill-rule:evenodd; clip-rule:evenodd"
viewBox="0 0 1706.66 1706.66"
 xmlns:xlink="http://www.w3.org/1999/xlink"
 xmlns:xodm="http://www.corel.com/coreldraw/odm/2003">
 <defs>
  <style type="text/css">
   <![CDATA[
    .fil0 {fill:black}
   ]]>
  </style>
 </defs>
 <g id="Layer_x0020_1">
  <metadata id="CorelCorpID_0Corel-Layer"/>
  <path class="fil0" d="M563.03 1497.09c-5.14,0 -10.28,-2.08 -14.17,-5.83l-333.47 -333.47c-6.11,-6.11 -7.64,-15.42 -3.75,-23.19 293.74,-580.27 698.46,-1168.74 1474.43,-1133.05 10.28,0.42 18.61,8.75 19.03,19.03 35.56,775.83 -552.78,1180.69 -1133.05,1474.3 -2.91,1.53 -5.97,2.22 -9.02,2.22zm-309.03 -357.36l312.92 312.92c560,-285 1123.19,-676.39 1098.88,-1411.94 -735.56,-24.17 -1126.8,539.02 -1411.8,1099.02z"/>
  <path class="fil0" d="M698.72 1425.98c-5.14,0 -10.28,-1.94 -14.17,-5.83l-397.92 -398.06c-18.54,-18.54 9.53,-46.97 28.33,-28.33l398.06 398.06c12.5,12.5 3.7,34.17 -14.31,34.17z"/>
  <path class="fil0" d="M1632.33 474.73c-1.94,0 -4.03,-0.28 -5.97,-0.97 -189.71,-63.47 -333.33,-202.26 -393.47,-393.47 -3.33,-10.56 2.5,-21.81 13.06,-25 136.39,-42.78 284.44,-60.83 440.14,-53.75 10.28,0.42 18.61,8.75 19.03,19.03 7.08,155.56 -10.97,303.61 -53.75,440.14 -2.56,8.27 -10.28,14.03 -19.03,14.03zm-355 -387.22c56.44,159.17 182.59,285.34 341.81,341.81 35.56,-121.25 51.25,-251.67 46.67,-388.47 -136.67,-4.59 -267.22,11.11 -388.47,46.67z"/>
  <path class="fil0" d="M1096.35 812.51c-179.15,0 -270.33,-217.86 -143.06,-345.14 78.89,-78.89 207.08,-78.89 285.97,0 127.37,127.37 35.92,345.14 -142.92,345.14zm0 -364.3c-143.77,0 -216.63,175.03 -114.72,276.94 63.19,63.19 166.25,63.19 229.44,0 101.91,-101.91 29.04,-276.94 -114.72,-276.94zm128.75 290.97l0 0z"/>
  <path class="fil0" d="M499.69 1226.95c-17.85,0 -26.66,-21.57 -14.17,-34.17l467.77 -467.77c18.54,-18.54 46.97,9.53 28.33,28.33l-467.77 467.77c-3.89,3.89 -9.03,5.83 -14.17,5.83zm725.41 -725.41c-17.85,0 -26.66,-21.57 -14.17,-34.17l170.42 -170.42c18.54,-18.54 46.97,9.53 28.33,28.33l-170.42 170.42c-3.89,3.89 -9.03,5.83 -14.17,5.83z"/>
  <path class="fil0" d="M420.8 1598.76c-5.14,0 -10.28,-1.94 -14.17,-5.83l-292.92 -292.92c-7.78,-7.78 -7.78,-20.42 0,-28.33l121.94 -121.94c7.78,-7.78 20.42,-7.78 28.33,0l292.92 292.92c7.78,7.78 7.78,20.42 0,28.33l-121.94 121.94c-3.89,3.89 -9.03,5.83 -14.17,5.83zm-264.58 -312.92l264.58 264.58 93.61 -93.61 -264.58 -264.58 -93.61 93.61z"/>
  <path class="fil0" d="M136.5 1660.98c-22.64,0 -45.42,-2.5 -68.06,-7.78 -7.5,-1.67 -13.19,-7.5 -15,-15 -28.01,-118.52 21.26,-242.42 120.14,-311.8 7.92,-5.56 18.75,-4.58 25.56,2.22l178.75 178.75c6.81,6.81 7.78,17.64 2.22,25.56 -56.11,80.48 -146.59,128.06 -243.61,128.06zm-46.67 -44.17c94.06,16.93 187.72,-18.47 247.5,-93.19l-154.31 -154.31c-74.65,59.72 -110.26,153.53 -93.19,247.5z"/>
  <path class="fil0" d="M1096.35 705.43c-84.23,0 -127.03,-102.41 -67.22,-162.22 37.08,-37.08 97.36,-37.08 134.44,0 59.88,59.88 16.89,162.22 -67.22,162.22zm0 -150.14c-48.47,0 -73.74,59.07 -38.89,94.03 51.24,51.4 129.31,-26.85 77.92,-77.92 -10.83,-10.69 -25,-16.11 -39.03,-16.11zm53.06 108.19l0 0z"/>
  <path class="fil0" d="M368.17 908.48c-9.72,0 -318.04,-117.77 -355.14,-131.52 -14.55,-5.39 -17.77,-25.04 -5,-34.72l344.17 -259.72c4.44,-3.33 10,-4.72 15.42,-3.75l242.36 41.81c14.89,2.62 21.74,20.4 12.09,32.22 -80.69,99.03 -158.19,212.08 -236.67,345.69 -3.62,6.39 -10.28,10 -17.23,10zm-307.08 -156.24l298.33 111.66c69.72,-117.36 138.75,-219.16 210.28,-309.58l-200.42 -34.58 -308.19 232.5z"/>
  <path class="fil0" d="M948.44 1706.67c-8.14,0 -15.87,-5.28 -18.75,-13.06l-130.28 -348.19c-3.47,-9.17 0.28,-19.31 8.61,-24.31 133.61,-78.47 246.66,-155.83 345.55,-236.67 11.93,-9.65 29.75,-2.74 32.36,12.09l41.81 242.36c0.97,5.42 -0.42,10.97 -3.75,15.42l-259.58 344.44c-3.89,5 -9.72,7.91 -15.97,7.91zm-105.69 -359.44l111.66 298.33 232.5 -308.19 -34.58 -200.42c-90.42,71.39 -192.22,140.55 -309.58,210.28z"/>
 </g>
</svg>
